<svg height="512pt" viewBox="0 -5 512.00002 512" width="512pt" xmlns="http://www.w3.org/2000/svg"><path d="m160.394531 63.984375v110.625l95.804688 55.316406v-110.628906zm0 0" fill="#57a4ff"/><path d="m352.003906 63.984375-95.804687-55.3125-95.804688 55.3125 95.804688 55.3125zm0 0" fill="#c6c5ca"/><path d="m256.199219 119.296875v110.628906l95.804687-55.316406v-110.625zm0 0" fill="#787680"/><path d="m504.433594 327.285156-95.832032-55.265625-95.777343 55.363281 95.832031 55.265626zm0 0" fill="#c6c5ca"/><path d="m408.710938 493.273438 95.777343-55.359376-.054687-110.628906-95.777344 55.363282zm0 0" fill="#787680"/><path d="m408.65625 382.648438-95.832031-55.265626.054687 110.625 95.832032 55.265626zm0 0" fill="#57a4ff"/><path d="m103.316406 492.742188 95.804688-55.3125v-110.628907l-95.804688 55.316407zm0 0" fill="#787680"/><path d="m7.507812 326.800781v110.628907l95.808594 55.3125v-110.625zm0 0" fill="#57a4ff"/><path d="m103.316406 382.117188 95.804688-55.316407-95.804688-55.3125-95.808594 55.3125zm0 0" fill="#c6c5ca"/><path d="m190.429688 174.609375v-93.285156l-30.035157-17.339844v110.625l95.804688 55.316406v-17.34375zm0 0" fill="#006df0"/><path d="m190.429688 63.984375 80.789062-46.644531-15.019531-8.667969-95.804688 55.3125 95.804688 55.3125 15.019531-8.671875zm0 0" fill="#898890"/><path d="m286.234375 119.296875 65.769531-37.972656v-17.339844l-95.804687 55.3125v110.628906l30.035156-17.34375zm0 0" fill="#57565c"/><path d="m342.859375 327.382812 80.777344-46.691406-15.035157-8.671875-95.777343 55.363281 95.832031 55.265626 15-8.671876zm0 0" fill="#898890"/><path d="m438.691406 382.648438 65.75-38.003907-.007812-17.359375-95.777344 55.363282.054688 110.625 30.027343-17.355469zm0 0" fill="#57565c"/><path d="m342.914062 438.007812-.046874-93.300781-30.042969-17.324219.054687 110.625 95.832032 55.265626-.007813-17.324219zm0 0" fill="#006df0"/><path d="m133.351562 382.117188 65.769532-37.972657v-17.34375l-95.804688 55.316407v110.625l30.035156-17.339844zm0 0" fill="#57565c"/><path d="m37.542969 437.429688v-93.285157l-30.035157-17.34375v110.628907l95.808594 55.3125v-17.339844zm0 0" fill="#006df0"/><path d="m37.542969 326.800781 80.789062-46.640625-15.015625-8.671875-95.808594 55.3125 95.808594 55.316407 15.015625-8.671876zm0 0" fill="#898890"/><path d="m340.4375 170.5625c-4.738281-1.289062-9.621094-1.320312-14.253906-.136719l-15.5625-27.199219-13.035156 7.457032 15.5625 27.203125c-3.367188 3.390625-5.820313 7.617187-7.109376 12.355469-1.964843 7.222656-1 14.777343 2.71875 21.273437l7.808594 13.652344c3.714844 6.496093 9.742188 11.15625 16.964844 13.125 2.445312.664062 4.933594.996093 7.402344.996093 2.3125 0 4.609375-.292968 6.851562-.863281l3.0625 5.347657c-8.625 8.726562-10.78125 22.46875-4.398437 33.625l7.808593 13.652343c3.71875 6.496094 9.742188 11.15625 16.964844 13.121094 2.445313.667969 4.933594.996094 7.402344.996094 2.3125 0 4.613281-.289063 6.851562-.863281l15.675782 27.402343 13.039062-7.457031-15.683594-27.410156c8.625-8.722656 10.78125-22.46875 4.398438-33.621094l-7.808594-13.652344c-6.382812-11.15625-19.324218-16.261718-31.214844-13.25l-3.0625-5.347656c3.371094-3.394531 5.820313-7.617188 7.109376-12.355469 1.964843-7.222656 1-14.78125-2.71875-21.277343l-7.808594-13.648438c-3.714844-6.5-9.742188-11.160156-16.964844-13.125zm41.621094 86.460938 7.8125 13.652343c2.171875 3.796875 2.210937 8.242188.5 11.9375l-4.367188-7.628906-13.035156 7.457031 4.371094 7.636719c-.726563-.070313-1.453125-.203125-2.171875-.398437-3.351563-.910157-6.148438-3.074219-7.875-6.089844l-7.808594-13.648438c-2.171875-3.800781-2.214844-8.246094-.5-11.941406l4.476563 7.824219 13.039062-7.457031-4.480469-7.828126c4.054688.398438 7.867188 2.6875 10.039063 6.484376zm-33.746094-47.917969-13.035156 7.457031 4.367187 7.636719c-.726562-.070313-1.453125-.203125-2.171875-.398438-3.351562-.914062-6.148437-3.074219-7.871094-6.089843l-7.808593-13.652344c-1.726563-3.015625-2.175781-6.523438-1.261719-9.875.195312-.71875.449219-1.410156.753906-2.074219l4.484375 7.835937 13.035157-7.460937-4.476563-7.824219c4.054687.394532 7.867187 2.683594 10.039063 6.480469l7.808593 13.652344c1.726563 3.015625 2.175781 6.519531 1.261719 9.875-.195312.71875-.449219 1.410156-.753906 2.074219zm0 0"/><path d="m111.246094 331.707031 15.683594-27.410156c2.257812.570313 4.558593.851563 6.84375.851563 9.730468 0 19.199218-5.066407 24.367187-14.101563l7.8125-13.648437c3.714844-6.496094 4.679687-14.054688 2.714844-21.277344-1.289063-4.738282-3.742188-8.960938-7.109375-12.355469l3.0625-5.347656c2.261718.570312 4.558594.851562 6.84375.851562 9.730468 0 19.199218-5.066406 24.371094-14.101562l7.808593-13.652344c6.382813-11.152344 4.226563-24.894531-4.398437-33.621094l15.570312-27.210937-13.035156-7.457032-15.570312 27.210938c-11.890626-3.015625-24.832032 2.09375-31.214844 13.246094l-7.808594 13.652344c-6.382812 11.15625-4.226562 24.898437 4.398438 33.621093l-3.0625 5.351563c-4.632813-1.183594-9.515626-1.15625-14.253907.132812-7.222656 1.964844-13.246093 6.625-16.964843 13.121094l-7.808594 13.652344c-6.382813 11.15625-4.226563 24.898437 4.394531 33.625l-15.679687 27.40625zm47.714844-117.039062c-.910157-3.355469-.464844-6.859375 1.261718-9.875l7.808594-13.652344c2.171875-3.796875 5.984375-6.082031 10.042969-6.480469l-4.476563 7.828125 13.035156 7.457031 4.476563-7.828124c1.714844 3.699218 1.675781 8.144531-.5 11.941406l-7.808594 13.652344c-2.175781 3.796874-5.984375 6.085937-10.042969 6.480468l4.363282-7.625-13.035156-7.460937-4.367188 7.636719c-.308594-.664063-.5625-1.355469-.757812-2.074219zm-36.429688 56.007812 7.808594-13.652343c1.726562-3.015626 4.519531-5.179688 7.871094-6.089844.71875-.195313 1.445312-.328125 2.171874-.398438l-4.480468 7.832032 13.035156 7.457031 4.476562-7.824219c1.714844 3.695312 1.675782 8.140625-.496093 11.941406l-7.8125 13.648438c-2.171875 3.800781-5.984375 6.085937-10.039063 6.484375l4.363282-7.628907-13.035157-7.457031-4.363281 7.628907c-1.714844-3.699219-1.675781-8.144532.5-11.941407zm0 0"/><path d="m331.585938 410.726562 31.339843-.089843-.042969-15.019531-31.351562.089843c-3.316406-11.78125-14.160156-20.4375-26.976562-20.4375h-.082032l-15.726562.046875c-12.851563.035156-23.6875 8.765625-26.941406 20.589844l-6.164063.019531c-1.285156-4.605469-3.746094-8.824219-7.230469-12.285156-5.289062-5.257813-12.300781-8.152344-19.757812-8.152344h-.082032l-15.726562.042969c-7.484375.023438-14.511719 2.957031-19.789062 8.265625-3.464844 3.484375-5.902344 7.714844-7.160157 12.328125l-31.570312.089844.042969 15.015625 31.578124-.089844c3.316407 11.785156 14.164063 20.4375 26.980469 20.4375h.078125l15.726563-.046875c7.484375-.019531 14.515625-2.957031 19.792969-8.261719 3.460937-3.484375 5.898437-7.714843 7.160156-12.328125l6.152344-.019531c1.285156 4.605469 3.75 8.824219 7.230468 12.289063 5.289063 5.257812 12.300782 8.148437 19.757813 8.148437h.082031l15.726562-.042969c7.484376-.023437 14.515626-2.957031 19.792969-8.265625 3.460938-3.480469 5.898438-7.710937 7.160157-12.324219zm-93.710938 1.953126c-2.449219 2.464843-5.710938 3.824218-9.183594 3.835937l-15.726562.042969h-.039063c-4.359375 0-8.230469-2.15625-10.589843-5.464844l8.789062-.023438-.042969-15.019531-8.800781.027344c.421875-.597656.894531-1.164063 1.421875-1.691406 2.449219-2.464844 5.710937-3.824219 9.183594-3.835938l15.726562-.046875h.039063c3.460937 0 6.714844 1.34375 9.167968 3.785156.53125.523438 1.007813 1.085938 1.433594 1.683594l-9.027344.023438.042969 15.019531 9.027344-.027344c-.421875.597657-.898437 1.164063-1.421875 1.691407zm66.714844 3.617187-15.726563.046875h-.039062c-3.460938 0-6.714844-1.34375-9.167969-3.78125-.527344-.527344-1.007812-1.089844-1.429688-1.683594l8.796876-.027344-.042969-15.015624-8.789063.023437c2.347656-3.328125 6.222656-5.511719 10.597656-5.527344l15.726563-.042969h.039063c4.359374 0 8.226562 2.15625 10.589843 5.464844l-9.015625.027344.042969 15.015625 9.023437-.023437c-.421874.597656-.894531 1.160156-1.421874 1.691406-2.449219 2.460937-5.710938 3.824218-9.183594 3.832031zm0 0"/><path d="m263.707031 206.804688v-83.167969l72.027344-41.585938-7.511719-13.003906-72.023437 41.582031-72.023438-41.582031-7.511719 13.003906 72.027344 41.585938v83.167969zm0 0"/><path d="m480.660156 332.359375-72.003906 41.621094-72.054688-41.554688-7.503906 13.007813 72.054688 41.554687.039062 83.167969 15.015625-.003906-.035156-83.167969 72.003906-41.625zm0 0"/><path d="m110.828125 469.621094v-83.167969l72.023437-41.582031-7.507812-13.003906-72.023438 41.582031-72.035156-41.585938-7.507812 13.007813 72.03125 41.582031v83.167969zm0 0"/><path d="m167.902344 68.320312 88.296875-50.980468 88.296875 50.980468v93.449219h15.019531v-102.121093l-103.316406-59.648438-103.3125 59.648438v102.121093h15.015625zm0 0"/><path d="m256.199219 238.59375 41.476562-23.945312-7.507812-13.003907-33.96875 19.609375-33.976563-19.617187-7.507812 13.003906zm0 0"/><path d="m103.316406 484.074219-88.296875-50.980469v-101.957031l82.023438-47.355469-7.507813-13.007812-89.535156 51.695312v119.296875l103.316406 59.648437 95.351563-55.050781-7.507813-13.007812zm0 0"/><path d="m206.628906 365.417969v-42.949219l-40.308594-23.273438-7.507812 13.007813 32.800781 18.933594v34.28125zm0 0"/><path d="m511.941406 322.949219-89.089844-51.378907-7.503906 13.007813 81.582032 47.046875.050781 101.957031-88.273438 51.023438-86.320312-49.78125-7.503907 13.007812 93.832032 54.113281 103.285156-59.699218zm0 0"/><path d="m346.257812 299.382812-40.945312 23.667969.019531 40.5625 15.019531-.007812-.019531-31.890625 33.441407-19.332032zm0 0"/><g fill="#fff"><path d="m209.070312 73.566406-7.527343-12.996094 12.992187-7.527343 7.53125 12.992187zm89.121094-3.082031-41.984375-24.238281-3.824219 2.21875-7.53125-12.996094 11.339844-6.570312 49.511719 28.582031zm-67.464844-9.46875-7.527343-12.996094 12.992187-7.527343 7.527344 12.992187zm0 0"/><path d="m437.476562 456.410156-7.515624-13 41.972656-24.261718-.007813-4.421876 15.015625-.03125.027344 13.105469zm34.425782-51.695312-.03125-15.015625 15.015625-.035157.035156 15.019532zm-.054688-25.027344-.03125-15.019531 15.019532-.03125.03125 15.015625zm0 0"/><path d="m79.789062 458.8125-54.757812-31.492188v-15.707031h15.015625v7.023438l47.226563 27.160156zm-54.757812-57.210938v-15.019531h15.015625v15.015625zm15.015625-25.03125h-15.015625v-15.019531h15.015625zm0 0"/></g></svg>